G04 #@! TF.FileFunction,Other,User*
%FSLAX46Y46*%
G04 Gerber Fmt 4.6, Leading zero omitted, Abs format (unit mm)*
G04 Created by KiCad (PCBNEW 4.0.7) date 07/17/18 16:46:28*
%MOMM*%
%LPD*%
G01*
G04 APERTURE LIST*
%ADD10C,0.100000*%
%ADD11C,0.050000*%
G04 APERTURE END LIST*
D10*
D11*
X150542800Y-101462600D02*
X153342800Y-101462600D01*
X150542800Y-101462600D02*
X150542800Y-100162600D01*
X153342800Y-100162600D02*
X153342800Y-101462600D01*
X153342800Y-100162600D02*
X150542800Y-100162600D01*
X143406100Y-110263600D02*
X144706100Y-110263600D01*
X144706100Y-110263600D02*
X144706100Y-107363600D01*
X144706100Y-107363600D02*
X143406100Y-107363600D01*
X143406100Y-107363600D02*
X143406100Y-110263600D01*
X157413500Y-99345000D02*
X157163500Y-99345000D01*
X157163500Y-99345000D02*
X157163500Y-99095000D01*
X157413500Y-91845000D02*
X157163500Y-91845000D01*
X157163500Y-91845000D02*
X157163500Y-92095000D01*
X166663500Y-92095000D02*
X166663500Y-91845000D01*
X166663500Y-91845000D02*
X166413500Y-91845000D01*
X166663500Y-99095000D02*
X166663500Y-99345000D01*
X166663500Y-99345000D02*
X166413500Y-99345000D01*
X166413500Y-91845000D02*
X157413500Y-91845000D01*
X166663500Y-99095000D02*
X166663500Y-92095000D01*
X157413500Y-99345000D02*
X166413500Y-99345000D01*
X157163500Y-92095000D02*
X157163500Y-99095000D01*
X156616600Y-102946700D02*
X156616600Y-110946700D01*
X147116600Y-102946700D02*
X147116600Y-110946700D01*
X156616600Y-102946700D02*
X147116600Y-102946700D01*
X156616600Y-110946700D02*
X147116600Y-110946700D01*
X147976100Y-117133400D02*
X147976100Y-112533400D01*
X147976100Y-112533400D02*
X155376100Y-112533400D01*
X155376100Y-112533400D02*
X155376100Y-117133400D01*
X155376100Y-117133400D02*
X147976100Y-117133400D01*
M02*
