G04 #@! TF.FileFunction,Soldermask,Bot*
%FSLAX46Y46*%
G04 Gerber Fmt 4.6, Leading zero omitted, Abs format (unit mm)*
G04 Created by KiCad (PCBNEW 4.0.7) date 07/17/18 16:46:28*
%MOMM*%
%LPD*%
G01*
G04 APERTURE LIST*
%ADD10C,0.100000*%
%ADD11R,1.200000X1.150000*%
%ADD12R,1.200000X1.200000*%
%ADD13C,2.050000*%
%ADD14C,2.200000*%
%ADD15C,2.400000*%
%ADD16R,2.150000X0.850000*%
%ADD17R,1.600000X4.400000*%
G04 APERTURE END LIST*
D10*
D11*
X151192800Y-100812600D03*
X152692800Y-100812600D03*
D12*
X144056100Y-109613600D03*
X144056100Y-108013600D03*
D13*
X162947000Y-114812300D03*
X160407000Y-113542300D03*
X162947000Y-109732300D03*
X162947000Y-107192300D03*
X162947000Y-112272300D03*
X160407000Y-105922300D03*
X160407000Y-108462300D03*
X160407000Y-111002300D03*
D14*
X162207000Y-104522300D03*
D13*
X151185100Y-94113700D03*
X148645100Y-94113700D03*
X153725100Y-94113700D03*
X147375100Y-96653700D03*
X149915100Y-96653700D03*
X152455100Y-96653700D03*
D14*
X145975100Y-94853700D03*
D15*
X165163500Y-97845000D03*
X165163500Y-93345000D03*
X158663500Y-97845000D03*
X158663500Y-93345000D03*
D16*
X155466600Y-104021700D03*
X155466600Y-104671700D03*
X155466600Y-105321700D03*
X155466600Y-105971700D03*
X155466600Y-106621700D03*
X155466600Y-107271700D03*
X155466600Y-107921700D03*
X155466600Y-108571700D03*
X155466600Y-109221700D03*
X155466600Y-109871700D03*
X148266600Y-109871700D03*
X148266600Y-109221700D03*
X148266600Y-108571700D03*
X148266600Y-107921700D03*
X148266600Y-107271700D03*
X148266600Y-106621700D03*
X148266600Y-105971700D03*
X148266600Y-105321700D03*
X148266600Y-104671700D03*
X148266600Y-104021700D03*
D17*
X148826100Y-114833400D03*
X151676100Y-114833400D03*
X154526100Y-114833400D03*
M02*
