G04 #@! TF.FileFunction,Legend,Bot*
%FSLAX46Y46*%
G04 Gerber Fmt 4.6, Leading zero omitted, Abs format (unit mm)*
G04 Created by KiCad (PCBNEW 4.0.7) date 07/17/18 16:46:28*
%MOMM*%
%LPD*%
G01*
G04 APERTURE LIST*
%ADD10C,0.100000*%
%ADD11C,0.120000*%
%ADD12C,0.150000*%
G04 APERTURE END LIST*
D10*
D11*
X151592800Y-101412600D02*
X152292800Y-101412600D01*
X152292800Y-100212600D02*
X151592800Y-100212600D01*
X143556100Y-107513600D02*
X144556100Y-107513600D01*
X144556100Y-107513600D02*
X144556100Y-109613600D01*
X143556100Y-107513600D02*
X143556100Y-109613600D01*
X164163500Y-98845000D02*
X159663500Y-98845000D01*
X165413500Y-94845000D02*
X165413500Y-96345000D01*
X159663500Y-92345000D02*
X164163500Y-92345000D01*
X158413500Y-96345000D02*
X158413500Y-94845000D01*
D12*
X154741600Y-103121700D02*
X154741600Y-103471700D01*
X148991600Y-103121700D02*
X148991600Y-103571700D01*
X148991600Y-110771700D02*
X148991600Y-110321700D01*
X154741600Y-110771700D02*
X154741600Y-110321700D01*
X154741600Y-103121700D02*
X148991600Y-103121700D01*
X154741600Y-110771700D02*
X148991600Y-110771700D01*
X154741600Y-103471700D02*
X156341600Y-103471700D01*
D11*
X148026100Y-117033400D02*
X148026100Y-112633400D01*
X148026100Y-112633400D02*
X155326100Y-112633400D01*
D12*
X152109466Y-99669743D02*
X152157085Y-99717362D01*
X152299942Y-99764981D01*
X152395180Y-99764981D01*
X152538038Y-99717362D01*
X152633276Y-99622124D01*
X152680895Y-99526886D01*
X152728514Y-99336410D01*
X152728514Y-99193552D01*
X152680895Y-99003076D01*
X152633276Y-98907838D01*
X152538038Y-98812600D01*
X152395180Y-98764981D01*
X152299942Y-98764981D01*
X152157085Y-98812600D01*
X152109466Y-98860219D01*
X151157085Y-99764981D02*
X151728514Y-99764981D01*
X151442800Y-99764981D02*
X151442800Y-98764981D01*
X151538038Y-98907838D01*
X151633276Y-99003076D01*
X151728514Y-99050695D01*
X143258481Y-108075505D02*
X142258481Y-108075505D01*
X142258481Y-108313600D01*
X142306100Y-108456458D01*
X142401338Y-108551696D01*
X142496576Y-108599315D01*
X142687052Y-108646934D01*
X142829910Y-108646934D01*
X143020386Y-108599315D01*
X143115624Y-108551696D01*
X143210862Y-108456458D01*
X143258481Y-108313600D01*
X143258481Y-108075505D01*
X143258481Y-109599315D02*
X143258481Y-109027886D01*
X143258481Y-109313600D02*
X142258481Y-109313600D01*
X142401338Y-109218362D01*
X142496576Y-109123124D01*
X142544195Y-109027886D01*
X152628505Y-101649081D02*
X152628505Y-102458605D01*
X152580886Y-102553843D01*
X152533267Y-102601462D01*
X152438029Y-102649081D01*
X152247552Y-102649081D01*
X152152314Y-102601462D01*
X152104695Y-102553843D01*
X152057076Y-102458605D01*
X152057076Y-101649081D01*
X151057076Y-102649081D02*
X151628505Y-102649081D01*
X151342791Y-102649081D02*
X151342791Y-101649081D01*
X151438029Y-101791938D01*
X151533267Y-101887176D01*
X151628505Y-101934795D01*
X152152291Y-117809590D02*
X152152291Y-118285781D01*
X152485624Y-117285781D02*
X152152291Y-117809590D01*
X151818957Y-117285781D01*
X150961814Y-118285781D02*
X151533243Y-118285781D01*
X151247529Y-118285781D02*
X151247529Y-117285781D01*
X151342767Y-117428638D01*
X151438005Y-117523876D01*
X151533243Y-117571495D01*
M02*
