G04 #@! TF.FileFunction,Legend,Top*
%FSLAX46Y46*%
G04 Gerber Fmt 4.6, Leading zero omitted, Abs format (unit mm)*
G04 Created by KiCad (PCBNEW 4.0.7) date 07/17/18 16:46:28*
%MOMM*%
%LPD*%
G01*
G04 APERTURE LIST*
%ADD10C,0.100000*%
%ADD11C,0.200000*%
%ADD12C,0.050000*%
G04 APERTURE END LIST*
D10*
D11*
X152725933Y-102318395D02*
X152725933Y-102794586D01*
X152440219Y-102223157D02*
X153440219Y-102556490D01*
X152440219Y-102889824D01*
X153440219Y-103080300D02*
X153440219Y-103651729D01*
X152440219Y-103366014D02*
X153440219Y-103366014D01*
X152440219Y-104032681D02*
X152440219Y-104223157D01*
X152487838Y-104318396D01*
X152535457Y-104366015D01*
X152678314Y-104461253D01*
X152868790Y-104508872D01*
X153249743Y-104508872D01*
X153344981Y-104461253D01*
X153392600Y-104413634D01*
X153440219Y-104318396D01*
X153440219Y-104127919D01*
X153392600Y-104032681D01*
X153344981Y-103985062D01*
X153249743Y-103937443D01*
X153011648Y-103937443D01*
X152916410Y-103985062D01*
X152868790Y-104032681D01*
X152821171Y-104127919D01*
X152821171Y-104318396D01*
X152868790Y-104413634D01*
X152916410Y-104461253D01*
X153011648Y-104508872D01*
X153440219Y-105127919D02*
X153440219Y-105223158D01*
X153392600Y-105318396D01*
X153344981Y-105366015D01*
X153249743Y-105413634D01*
X153059267Y-105461253D01*
X152821171Y-105461253D01*
X152630695Y-105413634D01*
X152535457Y-105366015D01*
X152487838Y-105318396D01*
X152440219Y-105223158D01*
X152440219Y-105127919D01*
X152487838Y-105032681D01*
X152535457Y-104985062D01*
X152630695Y-104937443D01*
X152821171Y-104889824D01*
X153059267Y-104889824D01*
X153249743Y-104937443D01*
X153344981Y-104985062D01*
X153392600Y-105032681D01*
X153440219Y-105127919D01*
X152487838Y-105842205D02*
X152440219Y-105985062D01*
X152440219Y-106223158D01*
X152487838Y-106318396D01*
X152535457Y-106366015D01*
X152630695Y-106413634D01*
X152725933Y-106413634D01*
X152821171Y-106366015D01*
X152868790Y-106318396D01*
X152916410Y-106223158D01*
X152964029Y-106032681D01*
X153011648Y-105937443D01*
X153059267Y-105889824D01*
X153154505Y-105842205D01*
X153249743Y-105842205D01*
X153344981Y-105889824D01*
X153392600Y-105937443D01*
X153440219Y-106032681D01*
X153440219Y-106270777D01*
X153392600Y-106413634D01*
X152440219Y-107366015D02*
X152440219Y-106794586D01*
X152440219Y-107080300D02*
X153440219Y-107080300D01*
X153297362Y-106985062D01*
X153202124Y-106889824D01*
X153154505Y-106794586D01*
X153344981Y-107746967D02*
X153392600Y-107794586D01*
X153440219Y-107889824D01*
X153440219Y-108127920D01*
X153392600Y-108223158D01*
X153344981Y-108270777D01*
X153249743Y-108318396D01*
X153154505Y-108318396D01*
X153011648Y-108270777D01*
X152440219Y-107699348D01*
X152440219Y-108318396D01*
X153440219Y-108937443D02*
X153440219Y-109032682D01*
X153392600Y-109127920D01*
X153344981Y-109175539D01*
X153249743Y-109223158D01*
X153059267Y-109270777D01*
X152821171Y-109270777D01*
X152630695Y-109223158D01*
X152535457Y-109175539D01*
X152487838Y-109127920D01*
X152440219Y-109032682D01*
X152440219Y-108937443D01*
X152487838Y-108842205D01*
X152535457Y-108794586D01*
X152630695Y-108746967D01*
X152821171Y-108699348D01*
X153059267Y-108699348D01*
X153249743Y-108746967D01*
X153344981Y-108794586D01*
X153392600Y-108842205D01*
X153440219Y-108937443D01*
X153440219Y-109889824D02*
X153440219Y-109985063D01*
X153392600Y-110080301D01*
X153344981Y-110127920D01*
X153249743Y-110175539D01*
X153059267Y-110223158D01*
X152821171Y-110223158D01*
X152630695Y-110175539D01*
X152535457Y-110127920D01*
X152487838Y-110080301D01*
X152440219Y-109985063D01*
X152440219Y-109889824D01*
X152487838Y-109794586D01*
X152535457Y-109746967D01*
X152630695Y-109699348D01*
X152821171Y-109651729D01*
X153059267Y-109651729D01*
X153249743Y-109699348D01*
X153344981Y-109746967D01*
X153392600Y-109794586D01*
X153440219Y-109889824D01*
X152821171Y-110651729D02*
X152821171Y-111413634D01*
X152440219Y-111889824D02*
X153440219Y-111889824D01*
X153059267Y-111889824D02*
X153106886Y-111985062D01*
X153106886Y-112175539D01*
X153059267Y-112270777D01*
X153011648Y-112318396D01*
X152916410Y-112366015D01*
X152630695Y-112366015D01*
X152535457Y-112318396D01*
X152487838Y-112270777D01*
X152440219Y-112175539D01*
X152440219Y-111985062D01*
X152487838Y-111889824D01*
X152440219Y-113223158D02*
X152964029Y-113223158D01*
X153059267Y-113175539D01*
X153106886Y-113080301D01*
X153106886Y-112889824D01*
X153059267Y-112794586D01*
X152487838Y-113223158D02*
X152440219Y-113127920D01*
X152440219Y-112889824D01*
X152487838Y-112794586D01*
X152583076Y-112746967D01*
X152678314Y-112746967D01*
X152773552Y-112794586D01*
X152821171Y-112889824D01*
X152821171Y-113127920D01*
X152868790Y-113223158D01*
X152487838Y-113651729D02*
X152440219Y-113746967D01*
X152440219Y-113937443D01*
X152487838Y-114032682D01*
X152583076Y-114080301D01*
X152630695Y-114080301D01*
X152725933Y-114032682D01*
X152773552Y-113937443D01*
X152773552Y-113794586D01*
X152821171Y-113699348D01*
X152916410Y-113651729D01*
X152964029Y-113651729D01*
X153059267Y-113699348D01*
X153106886Y-113794586D01*
X153106886Y-113937443D01*
X153059267Y-114032682D01*
X152487838Y-114889825D02*
X152440219Y-114794587D01*
X152440219Y-114604110D01*
X152487838Y-114508872D01*
X152583076Y-114461253D01*
X152964029Y-114461253D01*
X153059267Y-114508872D01*
X153106886Y-114604110D01*
X153106886Y-114794587D01*
X153059267Y-114889825D01*
X152964029Y-114937444D01*
X152868790Y-114937444D01*
X152773552Y-114461253D01*
X152440219Y-115794587D02*
X153440219Y-115794587D01*
X152487838Y-115794587D02*
X152440219Y-115699349D01*
X152440219Y-115508872D01*
X152487838Y-115413634D01*
X152535457Y-115366015D01*
X152630695Y-115318396D01*
X152916410Y-115318396D01*
X153011648Y-115366015D01*
X153059267Y-115413634D01*
X153106886Y-115508872D01*
X153106886Y-115699349D01*
X153059267Y-115794587D01*
X150740219Y-101723156D02*
X151740219Y-101723156D01*
X151740219Y-102104109D01*
X151692600Y-102199347D01*
X151644981Y-102246966D01*
X151549743Y-102294585D01*
X151406886Y-102294585D01*
X151311648Y-102246966D01*
X151264029Y-102199347D01*
X151216410Y-102104109D01*
X151216410Y-101723156D01*
X150740219Y-102866013D02*
X150787838Y-102770775D01*
X150883076Y-102723156D01*
X151740219Y-102723156D01*
X150740219Y-103675538D02*
X151264029Y-103675538D01*
X151359267Y-103627919D01*
X151406886Y-103532681D01*
X151406886Y-103342204D01*
X151359267Y-103246966D01*
X150787838Y-103675538D02*
X150740219Y-103580300D01*
X150740219Y-103342204D01*
X150787838Y-103246966D01*
X150883076Y-103199347D01*
X150978314Y-103199347D01*
X151073552Y-103246966D01*
X151121171Y-103342204D01*
X151121171Y-103580300D01*
X151168790Y-103675538D01*
X151406886Y-104056490D02*
X150740219Y-104294585D01*
X151406886Y-104532681D02*
X150740219Y-104294585D01*
X150502124Y-104199347D01*
X150454505Y-104151728D01*
X150406886Y-104056490D01*
X150787838Y-104866014D02*
X150740219Y-104961252D01*
X150740219Y-105151728D01*
X150787838Y-105246967D01*
X150883076Y-105294586D01*
X150930695Y-105294586D01*
X151025933Y-105246967D01*
X151073552Y-105151728D01*
X151073552Y-105008871D01*
X151121171Y-104913633D01*
X151216410Y-104866014D01*
X151264029Y-104866014D01*
X151359267Y-104913633D01*
X151406886Y-105008871D01*
X151406886Y-105151728D01*
X151359267Y-105246967D01*
X151406886Y-105580300D02*
X151406886Y-105961252D01*
X151740219Y-105723157D02*
X150883076Y-105723157D01*
X150787838Y-105770776D01*
X150740219Y-105866014D01*
X150740219Y-105961252D01*
X150740219Y-106723158D02*
X151264029Y-106723158D01*
X151359267Y-106675539D01*
X151406886Y-106580301D01*
X151406886Y-106389824D01*
X151359267Y-106294586D01*
X150787838Y-106723158D02*
X150740219Y-106627920D01*
X150740219Y-106389824D01*
X150787838Y-106294586D01*
X150883076Y-106246967D01*
X150978314Y-106246967D01*
X151073552Y-106294586D01*
X151121171Y-106389824D01*
X151121171Y-106627920D01*
X151168790Y-106723158D01*
X151406886Y-107056491D02*
X151406886Y-107437443D01*
X151740219Y-107199348D02*
X150883076Y-107199348D01*
X150787838Y-107246967D01*
X150740219Y-107342205D01*
X150740219Y-107437443D01*
X150740219Y-107770777D02*
X151406886Y-107770777D01*
X151740219Y-107770777D02*
X151692600Y-107723158D01*
X151644981Y-107770777D01*
X151692600Y-107818396D01*
X151740219Y-107770777D01*
X151644981Y-107770777D01*
X150740219Y-108389824D02*
X150787838Y-108294586D01*
X150835457Y-108246967D01*
X150930695Y-108199348D01*
X151216410Y-108199348D01*
X151311648Y-108246967D01*
X151359267Y-108294586D01*
X151406886Y-108389824D01*
X151406886Y-108532682D01*
X151359267Y-108627920D01*
X151311648Y-108675539D01*
X151216410Y-108723158D01*
X150930695Y-108723158D01*
X150835457Y-108675539D01*
X150787838Y-108627920D01*
X150740219Y-108532682D01*
X150740219Y-108389824D01*
X151406886Y-109151729D02*
X150740219Y-109151729D01*
X151311648Y-109151729D02*
X151359267Y-109199348D01*
X151406886Y-109294586D01*
X151406886Y-109437444D01*
X151359267Y-109532682D01*
X151264029Y-109580301D01*
X150740219Y-109580301D01*
X150740219Y-110818396D02*
X151740219Y-110818396D01*
X151025933Y-111151730D01*
X151740219Y-111485063D01*
X150740219Y-111485063D01*
X150740219Y-112104110D02*
X150787838Y-112008872D01*
X150835457Y-111961253D01*
X150930695Y-111913634D01*
X151216410Y-111913634D01*
X151311648Y-111961253D01*
X151359267Y-112008872D01*
X151406886Y-112104110D01*
X151406886Y-112246968D01*
X151359267Y-112342206D01*
X151311648Y-112389825D01*
X151216410Y-112437444D01*
X150930695Y-112437444D01*
X150835457Y-112389825D01*
X150787838Y-112342206D01*
X150740219Y-112246968D01*
X150740219Y-112104110D01*
X150740219Y-113294587D02*
X151740219Y-113294587D01*
X150787838Y-113294587D02*
X150740219Y-113199349D01*
X150740219Y-113008872D01*
X150787838Y-112913634D01*
X150835457Y-112866015D01*
X150930695Y-112818396D01*
X151216410Y-112818396D01*
X151311648Y-112866015D01*
X151359267Y-112913634D01*
X151406886Y-113008872D01*
X151406886Y-113199349D01*
X151359267Y-113294587D01*
X150787838Y-114199349D02*
X150740219Y-114104111D01*
X150740219Y-113913634D01*
X150787838Y-113818396D01*
X150835457Y-113770777D01*
X150930695Y-113723158D01*
X151216410Y-113723158D01*
X151311648Y-113770777D01*
X151359267Y-113818396D01*
X151406886Y-113913634D01*
X151406886Y-114104111D01*
X151359267Y-114199349D01*
X150740219Y-114627920D02*
X151740219Y-114627920D01*
X150740219Y-115056492D02*
X151264029Y-115056492D01*
X151359267Y-115008873D01*
X151406886Y-114913635D01*
X151406886Y-114770777D01*
X151359267Y-114675539D01*
X151311648Y-114627920D01*
X150740219Y-115532682D02*
X151406886Y-115532682D01*
X151740219Y-115532682D02*
X151692600Y-115485063D01*
X151644981Y-115532682D01*
X151692600Y-115580301D01*
X151740219Y-115532682D01*
X151644981Y-115532682D01*
X151406886Y-116008872D02*
X150406886Y-116008872D01*
X151359267Y-116008872D02*
X151406886Y-116104110D01*
X151406886Y-116294587D01*
X151359267Y-116389825D01*
X151311648Y-116437444D01*
X151216410Y-116485063D01*
X150930695Y-116485063D01*
X150835457Y-116437444D01*
X150787838Y-116389825D01*
X150740219Y-116294587D01*
X150740219Y-116104110D01*
X150787838Y-116008872D01*
X149040219Y-104437442D02*
X150040219Y-104437442D01*
X149659267Y-104437442D02*
X149706886Y-104532680D01*
X149706886Y-104723157D01*
X149659267Y-104818395D01*
X149611648Y-104866014D01*
X149516410Y-104913633D01*
X149230695Y-104913633D01*
X149135457Y-104866014D01*
X149087838Y-104818395D01*
X149040219Y-104723157D01*
X149040219Y-104532680D01*
X149087838Y-104437442D01*
X149706886Y-105246966D02*
X149040219Y-105485061D01*
X149706886Y-105723157D02*
X149040219Y-105485061D01*
X148802124Y-105389823D01*
X148754505Y-105342204D01*
X148706886Y-105246966D01*
X149040219Y-106866014D02*
X150040219Y-106866014D01*
X149564029Y-106866014D02*
X149564029Y-107437443D01*
X149040219Y-107437443D02*
X150040219Y-107437443D01*
X149040219Y-108342205D02*
X149564029Y-108342205D01*
X149659267Y-108294586D01*
X149706886Y-108199348D01*
X149706886Y-108008871D01*
X149659267Y-107913633D01*
X149087838Y-108342205D02*
X149040219Y-108246967D01*
X149040219Y-108008871D01*
X149087838Y-107913633D01*
X149183076Y-107866014D01*
X149278314Y-107866014D01*
X149373552Y-107913633D01*
X149421171Y-108008871D01*
X149421171Y-108246967D01*
X149468790Y-108342205D01*
X149706886Y-108818395D02*
X149040219Y-108818395D01*
X149611648Y-108818395D02*
X149659267Y-108866014D01*
X149706886Y-108961252D01*
X149706886Y-109104110D01*
X149659267Y-109199348D01*
X149564029Y-109246967D01*
X149040219Y-109246967D01*
X149087838Y-109675538D02*
X149040219Y-109770776D01*
X149040219Y-109961252D01*
X149087838Y-110056491D01*
X149183076Y-110104110D01*
X149230695Y-110104110D01*
X149325933Y-110056491D01*
X149373552Y-109961252D01*
X149373552Y-109818395D01*
X149421171Y-109723157D01*
X149516410Y-109675538D01*
X149564029Y-109675538D01*
X149659267Y-109723157D01*
X149706886Y-109818395D01*
X149706886Y-109961252D01*
X149659267Y-110056491D01*
X149040219Y-111770777D02*
X149040219Y-111294586D01*
X150040219Y-111294586D01*
X149040219Y-112104110D02*
X149706886Y-112104110D01*
X150040219Y-112104110D02*
X149992600Y-112056491D01*
X149944981Y-112104110D01*
X149992600Y-112151729D01*
X150040219Y-112104110D01*
X149944981Y-112104110D01*
X149087838Y-112532681D02*
X149040219Y-112627919D01*
X149040219Y-112818395D01*
X149087838Y-112913634D01*
X149183076Y-112961253D01*
X149230695Y-112961253D01*
X149325933Y-112913634D01*
X149373552Y-112818395D01*
X149373552Y-112675538D01*
X149421171Y-112580300D01*
X149516410Y-112532681D01*
X149564029Y-112532681D01*
X149659267Y-112580300D01*
X149706886Y-112675538D01*
X149706886Y-112818395D01*
X149659267Y-112913634D01*
X149087838Y-113342205D02*
X149040219Y-113437443D01*
X149040219Y-113627919D01*
X149087838Y-113723158D01*
X149183076Y-113770777D01*
X149230695Y-113770777D01*
X149325933Y-113723158D01*
X149373552Y-113627919D01*
X149373552Y-113485062D01*
X149421171Y-113389824D01*
X149516410Y-113342205D01*
X149564029Y-113342205D01*
X149659267Y-113389824D01*
X149706886Y-113485062D01*
X149706886Y-113627919D01*
X149659267Y-113723158D01*
X147340219Y-103175538D02*
X148340219Y-103175538D01*
X147864029Y-103175538D02*
X147864029Y-103746967D01*
X147340219Y-103746967D02*
X148340219Y-103746967D01*
X147340219Y-104651729D02*
X147864029Y-104651729D01*
X147959267Y-104604110D01*
X148006886Y-104508872D01*
X148006886Y-104318395D01*
X147959267Y-104223157D01*
X147387838Y-104651729D02*
X147340219Y-104556491D01*
X147340219Y-104318395D01*
X147387838Y-104223157D01*
X147483076Y-104175538D01*
X147578314Y-104175538D01*
X147673552Y-104223157D01*
X147721171Y-104318395D01*
X147721171Y-104556491D01*
X147768790Y-104651729D01*
X148006886Y-105127919D02*
X147340219Y-105127919D01*
X147911648Y-105127919D02*
X147959267Y-105175538D01*
X148006886Y-105270776D01*
X148006886Y-105413634D01*
X147959267Y-105508872D01*
X147864029Y-105556491D01*
X147340219Y-105556491D01*
X147387838Y-105985062D02*
X147340219Y-106080300D01*
X147340219Y-106270776D01*
X147387838Y-106366015D01*
X147483076Y-106413634D01*
X147530695Y-106413634D01*
X147625933Y-106366015D01*
X147673552Y-106270776D01*
X147673552Y-106127919D01*
X147721171Y-106032681D01*
X147816410Y-105985062D01*
X147864029Y-105985062D01*
X147959267Y-106032681D01*
X148006886Y-106127919D01*
X148006886Y-106270776D01*
X147959267Y-106366015D01*
X147816410Y-107461253D02*
X147864029Y-107413634D01*
X147911648Y-107318396D01*
X147911648Y-107223158D01*
X147864029Y-107127920D01*
X147816410Y-107080300D01*
X147721171Y-107032681D01*
X147625933Y-107032681D01*
X147530695Y-107080300D01*
X147483076Y-107127920D01*
X147435457Y-107223158D01*
X147435457Y-107318396D01*
X147483076Y-107413634D01*
X147530695Y-107461253D01*
X147911648Y-107461253D02*
X147530695Y-107461253D01*
X147483076Y-107508872D01*
X147483076Y-107556491D01*
X147530695Y-107651729D01*
X147625933Y-107699348D01*
X147864029Y-107699348D01*
X148006886Y-107604110D01*
X148102124Y-107461253D01*
X148149743Y-107270777D01*
X148102124Y-107080300D01*
X148006886Y-106937443D01*
X147864029Y-106842205D01*
X147673552Y-106794586D01*
X147483076Y-106842205D01*
X147340219Y-106937443D01*
X147244981Y-107080300D01*
X147197362Y-107270777D01*
X147244981Y-107461253D01*
X147340219Y-107604110D01*
X147340219Y-108604110D02*
X147340219Y-108127919D01*
X148340219Y-108127919D01*
X147340219Y-108937443D02*
X148006886Y-108937443D01*
X148340219Y-108937443D02*
X148292600Y-108889824D01*
X148244981Y-108937443D01*
X148292600Y-108985062D01*
X148340219Y-108937443D01*
X148244981Y-108937443D01*
X147387838Y-109366014D02*
X147340219Y-109461252D01*
X147340219Y-109651728D01*
X147387838Y-109746967D01*
X147483076Y-109794586D01*
X147530695Y-109794586D01*
X147625933Y-109746967D01*
X147673552Y-109651728D01*
X147673552Y-109508871D01*
X147721171Y-109413633D01*
X147816410Y-109366014D01*
X147864029Y-109366014D01*
X147959267Y-109413633D01*
X148006886Y-109508871D01*
X148006886Y-109651728D01*
X147959267Y-109746967D01*
X147387838Y-110175538D02*
X147340219Y-110270776D01*
X147340219Y-110461252D01*
X147387838Y-110556491D01*
X147483076Y-110604110D01*
X147530695Y-110604110D01*
X147625933Y-110556491D01*
X147673552Y-110461252D01*
X147673552Y-110318395D01*
X147721171Y-110223157D01*
X147816410Y-110175538D01*
X147864029Y-110175538D01*
X147959267Y-110223157D01*
X148006886Y-110318395D01*
X148006886Y-110461252D01*
X147959267Y-110556491D01*
X147435457Y-111032681D02*
X147387838Y-111080300D01*
X147340219Y-111032681D01*
X147387838Y-110985062D01*
X147435457Y-111032681D01*
X147340219Y-111032681D01*
X148006886Y-111508871D02*
X147006886Y-111508871D01*
X147959267Y-111508871D02*
X148006886Y-111604109D01*
X148006886Y-111794586D01*
X147959267Y-111889824D01*
X147911648Y-111937443D01*
X147816410Y-111985062D01*
X147530695Y-111985062D01*
X147435457Y-111937443D01*
X147387838Y-111889824D01*
X147340219Y-111794586D01*
X147340219Y-111604109D01*
X147387838Y-111508871D01*
X148006886Y-112413633D02*
X147006886Y-112413633D01*
X147959267Y-112413633D02*
X148006886Y-112508871D01*
X148006886Y-112699348D01*
X147959267Y-112794586D01*
X147911648Y-112842205D01*
X147816410Y-112889824D01*
X147530695Y-112889824D01*
X147435457Y-112842205D01*
X147387838Y-112794586D01*
X147340219Y-112699348D01*
X147340219Y-112508871D01*
X147387838Y-112413633D01*
X147435457Y-113318395D02*
X147387838Y-113366014D01*
X147340219Y-113318395D01*
X147387838Y-113270776D01*
X147435457Y-113318395D01*
X147340219Y-113318395D01*
X147387838Y-113746966D02*
X147340219Y-113842204D01*
X147340219Y-114032680D01*
X147387838Y-114127919D01*
X147483076Y-114175538D01*
X147530695Y-114175538D01*
X147625933Y-114127919D01*
X147673552Y-114032680D01*
X147673552Y-113889823D01*
X147721171Y-113794585D01*
X147816410Y-113746966D01*
X147864029Y-113746966D01*
X147959267Y-113794585D01*
X148006886Y-113889823D01*
X148006886Y-114032680D01*
X147959267Y-114127919D01*
X147387838Y-114985062D02*
X147340219Y-114889824D01*
X147340219Y-114699347D01*
X147387838Y-114604109D01*
X147483076Y-114556490D01*
X147864029Y-114556490D01*
X147959267Y-114604109D01*
X148006886Y-114699347D01*
X148006886Y-114889824D01*
X147959267Y-114985062D01*
X147864029Y-115032681D01*
X147768790Y-115032681D01*
X147673552Y-114556490D01*
D12*
X158607000Y-116942300D02*
X158607000Y-102292300D01*
X158607000Y-102292300D02*
X164717000Y-102292300D01*
X164717000Y-102292300D02*
X164717000Y-116942300D01*
X164717000Y-116942300D02*
X158607000Y-116942300D01*
X155855100Y-98453700D02*
X143745100Y-98453700D01*
X143745100Y-98453700D02*
X143745100Y-92343700D01*
X143745100Y-92343700D02*
X155855100Y-92343700D01*
X155855100Y-92343700D02*
X155855100Y-98453700D01*
D10*
X164193667Y-114888966D02*
X164160333Y-114955633D01*
X164127000Y-114988966D01*
X164060333Y-115022300D01*
X164027000Y-115022300D01*
X163960333Y-114988966D01*
X163927000Y-114955633D01*
X163893667Y-114888966D01*
X163893667Y-114755633D01*
X163927000Y-114688966D01*
X163960333Y-114655633D01*
X164027000Y-114622300D01*
X164060333Y-114622300D01*
X164127000Y-114655633D01*
X164160333Y-114688966D01*
X164193667Y-114755633D01*
X164193667Y-114888966D01*
X164227000Y-114955633D01*
X164260333Y-114988966D01*
X164327000Y-115022300D01*
X164460333Y-115022300D01*
X164527000Y-114988966D01*
X164560333Y-114955633D01*
X164593667Y-114888966D01*
X164593667Y-114755633D01*
X164560333Y-114688966D01*
X164527000Y-114655633D01*
X164460333Y-114622300D01*
X164327000Y-114622300D01*
X164260333Y-114655633D01*
X164227000Y-114688966D01*
X164193667Y-114755633D01*
X158763667Y-113735633D02*
X158763667Y-113268966D01*
X159463667Y-113568966D01*
X163883667Y-112118966D02*
X163883667Y-112252300D01*
X163917000Y-112318966D01*
X163950333Y-112352300D01*
X164050333Y-112418966D01*
X164183667Y-112452300D01*
X164450333Y-112452300D01*
X164517000Y-112418966D01*
X164550333Y-112385633D01*
X164583667Y-112318966D01*
X164583667Y-112185633D01*
X164550333Y-112118966D01*
X164517000Y-112085633D01*
X164450333Y-112052300D01*
X164283667Y-112052300D01*
X164217000Y-112085633D01*
X164183667Y-112118966D01*
X164150333Y-112185633D01*
X164150333Y-112318966D01*
X164183667Y-112385633D01*
X164217000Y-112418966D01*
X164283667Y-112452300D01*
X164117000Y-109638966D02*
X164583667Y-109638966D01*
X163850333Y-109805633D02*
X164350333Y-109972300D01*
X164350333Y-109538966D01*
X163940333Y-107392300D02*
X163907000Y-107358966D01*
X163873667Y-107292300D01*
X163873667Y-107125633D01*
X163907000Y-107058966D01*
X163940333Y-107025633D01*
X164007000Y-106992300D01*
X164073667Y-106992300D01*
X164173667Y-107025633D01*
X164573667Y-107425633D01*
X164573667Y-106992300D01*
X158753667Y-110895633D02*
X158753667Y-111228966D01*
X159087000Y-111262300D01*
X159053667Y-111228966D01*
X159020333Y-111162300D01*
X159020333Y-110995633D01*
X159053667Y-110928966D01*
X159087000Y-110895633D01*
X159153667Y-110862300D01*
X159320333Y-110862300D01*
X159387000Y-110895633D01*
X159420333Y-110928966D01*
X159453667Y-110995633D01*
X159453667Y-111162300D01*
X159420333Y-111228966D01*
X159387000Y-111262300D01*
X158753667Y-108665633D02*
X158753667Y-108232300D01*
X159020333Y-108465633D01*
X159020333Y-108365633D01*
X159053667Y-108298966D01*
X159087000Y-108265633D01*
X159153667Y-108232300D01*
X159320333Y-108232300D01*
X159387000Y-108265633D01*
X159420333Y-108298966D01*
X159453667Y-108365633D01*
X159453667Y-108565633D01*
X159420333Y-108632300D01*
X159387000Y-108665633D01*
X159453667Y-105762300D02*
X159453667Y-106162300D01*
X159453667Y-105962300D02*
X158753667Y-105962300D01*
X158853667Y-106028966D01*
X158920333Y-106095633D01*
X158953667Y-106162300D01*
X153838434Y-92410367D02*
X153705100Y-92410367D01*
X153638434Y-92443700D01*
X153605100Y-92477033D01*
X153538434Y-92577033D01*
X153505100Y-92710367D01*
X153505100Y-92977033D01*
X153538434Y-93043700D01*
X153571767Y-93077033D01*
X153638434Y-93110367D01*
X153771767Y-93110367D01*
X153838434Y-93077033D01*
X153871767Y-93043700D01*
X153905100Y-92977033D01*
X153905100Y-92810367D01*
X153871767Y-92743700D01*
X153838434Y-92710367D01*
X153771767Y-92677033D01*
X153638434Y-92677033D01*
X153571767Y-92710367D01*
X153538434Y-92743700D01*
X153505100Y-92810367D01*
X151358434Y-92643700D02*
X151358434Y-93110367D01*
X151191767Y-92377033D02*
X151025100Y-92877033D01*
X151458434Y-92877033D01*
X148445100Y-92487033D02*
X148478434Y-92453700D01*
X148545100Y-92420367D01*
X148711767Y-92420367D01*
X148778434Y-92453700D01*
X148811767Y-92487033D01*
X148845100Y-92553700D01*
X148845100Y-92620367D01*
X148811767Y-92720367D01*
X148411767Y-93120367D01*
X148845100Y-93120367D01*
X152681767Y-97540367D02*
X152348434Y-97540367D01*
X152315100Y-97873700D01*
X152348434Y-97840367D01*
X152415100Y-97807033D01*
X152581767Y-97807033D01*
X152648434Y-97840367D01*
X152681767Y-97873700D01*
X152715100Y-97940367D01*
X152715100Y-98107033D01*
X152681767Y-98173700D01*
X152648434Y-98207033D01*
X152581767Y-98240367D01*
X152415100Y-98240367D01*
X152348434Y-98207033D01*
X152315100Y-98173700D01*
X149651767Y-97540367D02*
X150085100Y-97540367D01*
X149851767Y-97807033D01*
X149951767Y-97807033D01*
X150018434Y-97840367D01*
X150051767Y-97873700D01*
X150085100Y-97940367D01*
X150085100Y-98107033D01*
X150051767Y-98173700D01*
X150018434Y-98207033D01*
X149951767Y-98240367D01*
X149751767Y-98240367D01*
X149685100Y-98207033D01*
X149651767Y-98173700D01*
X147615100Y-98240367D02*
X147215100Y-98240367D01*
X147415100Y-98240367D02*
X147415100Y-97540367D01*
X147348434Y-97640367D01*
X147281767Y-97707033D01*
X147215100Y-97740367D01*
M02*
