%FSLAX45Y45*%
G04 Gerber Fmt 4.5, Leading zero omitted, Abs format (unit mm)*
G04 Created by KiCad (PCBNEW 4.0.7) date 07/17/18 16:46:31*
%MOMM*%
%LPD*%
G01*
G04 APERTURE LIST*
%ADD10C,0.127000*%
%ADD11C,0.150000*%
%ADD12C,0.200000*%
%ADD13C,0.300000*%
G04 APERTURE END LIST*
D10*
D11*
X14188440Y-11905310D02*
G75*
G03X14288440Y-12005310I100000J0D01*
G01*
X14288440Y-9022080D02*
G75*
G03X14188440Y-9122080I0J-100000D01*
G01*
X16686860Y-12005310D02*
G75*
G03X16786860Y-11905310I0J100000D01*
G01*
X16786860Y-9122080D02*
G75*
G03X16686860Y-9022080I-100000J0D01*
G01*
X14188440Y-11905310D02*
X14188440Y-9122080D01*
X16686860Y-12005310D02*
X14288440Y-12005310D01*
X16786860Y-9122080D02*
X16786860Y-11905310D01*
X14288440Y-9022080D02*
X16686860Y-9022080D01*
D12*
X14522510Y-9410370D02*
X14672510Y-9560370D01*
X14672510Y-9410370D02*
X14522510Y-9560370D01*
X16145700Y-10377230D02*
X16295700Y-10527230D01*
X16295700Y-10377230D02*
X16145700Y-10527230D01*
D13*
X14452368Y-12478524D02*
X14452368Y-12178524D01*
X14523797Y-12178524D01*
X14566654Y-12192810D01*
X14595226Y-12221381D01*
X14609511Y-12249953D01*
X14623797Y-12307096D01*
X14623797Y-12349953D01*
X14609511Y-12407096D01*
X14595226Y-12435667D01*
X14566654Y-12464239D01*
X14523797Y-12478524D01*
X14452368Y-12478524D01*
X14752368Y-12478524D02*
X14752368Y-12278524D01*
X14752368Y-12335667D02*
X14766654Y-12307096D01*
X14780940Y-12292810D01*
X14809511Y-12278524D01*
X14838083Y-12278524D01*
X14938083Y-12478524D02*
X14938083Y-12278524D01*
X14938083Y-12178524D02*
X14923797Y-12192810D01*
X14938083Y-12207096D01*
X14952368Y-12192810D01*
X14938083Y-12178524D01*
X14938083Y-12207096D01*
X15123797Y-12478524D02*
X15095226Y-12464239D01*
X15080940Y-12435667D01*
X15080940Y-12178524D01*
X15280940Y-12478524D02*
X15252368Y-12464239D01*
X15238083Y-12435667D01*
X15238083Y-12178524D01*
X15623797Y-12478524D02*
X15623797Y-12178524D01*
X15723797Y-12392810D01*
X15823797Y-12178524D01*
X15823797Y-12478524D01*
X16095226Y-12478524D02*
X16095226Y-12321381D01*
X16080940Y-12292810D01*
X16052368Y-12278524D01*
X15995226Y-12278524D01*
X15966654Y-12292810D01*
X16095226Y-12464239D02*
X16066654Y-12478524D01*
X15995226Y-12478524D01*
X15966654Y-12464239D01*
X15952368Y-12435667D01*
X15952368Y-12407096D01*
X15966654Y-12378524D01*
X15995226Y-12364239D01*
X16066654Y-12364239D01*
X16095226Y-12349953D01*
X16238083Y-12278524D02*
X16238083Y-12578524D01*
X16238083Y-12292810D02*
X16266654Y-12278524D01*
X16323797Y-12278524D01*
X16352368Y-12292810D01*
X16366654Y-12307096D01*
X16380940Y-12335667D01*
X16380940Y-12421381D01*
X16366654Y-12449953D01*
X16352368Y-12464239D01*
X16323797Y-12478524D01*
X16266654Y-12478524D01*
X16238083Y-12464239D01*
X16509511Y-12449953D02*
X16523797Y-12464239D01*
X16509511Y-12478524D01*
X16495226Y-12464239D01*
X16509511Y-12449953D01*
X16509511Y-12478524D01*
X16509511Y-12292810D02*
X16523797Y-12307096D01*
X16509511Y-12321381D01*
X16495226Y-12307096D01*
X16509511Y-12292810D01*
X16509511Y-12321381D01*
X14030940Y-12897810D02*
X14180940Y-13047810D01*
X14180940Y-12897810D02*
X14030940Y-13047810D01*
X14609511Y-13108524D02*
X14438083Y-13108524D01*
X14523797Y-13108524D02*
X14523797Y-12808524D01*
X14495226Y-12851381D01*
X14466654Y-12879953D01*
X14438083Y-12894239D01*
X14738083Y-13079953D02*
X14752368Y-13094239D01*
X14738083Y-13108524D01*
X14723797Y-13094239D01*
X14738083Y-13079953D01*
X14738083Y-13108524D01*
X15023797Y-12808524D02*
X14880940Y-12808524D01*
X14866654Y-12951381D01*
X14880940Y-12937096D01*
X14909511Y-12922810D01*
X14980940Y-12922810D01*
X15009511Y-12937096D01*
X15023797Y-12951381D01*
X15038083Y-12979953D01*
X15038083Y-13051381D01*
X15023797Y-13079953D01*
X15009511Y-13094239D01*
X14980940Y-13108524D01*
X14909511Y-13108524D01*
X14880940Y-13094239D01*
X14866654Y-13079953D01*
X15223797Y-12808524D02*
X15252368Y-12808524D01*
X15280940Y-12822810D01*
X15295226Y-12837096D01*
X15309511Y-12865667D01*
X15323797Y-12922810D01*
X15323797Y-12994239D01*
X15309511Y-13051381D01*
X15295226Y-13079953D01*
X15280940Y-13094239D01*
X15252368Y-13108524D01*
X15223797Y-13108524D01*
X15195226Y-13094239D01*
X15180940Y-13079953D01*
X15166654Y-13051381D01*
X15152368Y-12994239D01*
X15152368Y-12922810D01*
X15166654Y-12865667D01*
X15180940Y-12837096D01*
X15195226Y-12822810D01*
X15223797Y-12808524D01*
X15452368Y-13108524D02*
X15452368Y-12908524D01*
X15452368Y-12937096D02*
X15466654Y-12922810D01*
X15495226Y-12908524D01*
X15538083Y-12908524D01*
X15566654Y-12922810D01*
X15580940Y-12951381D01*
X15580940Y-13108524D01*
X15580940Y-12951381D02*
X15595226Y-12922810D01*
X15623797Y-12908524D01*
X15666654Y-12908524D01*
X15695226Y-12922810D01*
X15709511Y-12951381D01*
X15709511Y-13108524D01*
X15852368Y-13108524D02*
X15852368Y-12908524D01*
X15852368Y-12937096D02*
X15866654Y-12922810D01*
X15895226Y-12908524D01*
X15938083Y-12908524D01*
X15966654Y-12922810D01*
X15980940Y-12951381D01*
X15980940Y-13108524D01*
X15980940Y-12951381D02*
X15995226Y-12922810D01*
X16023797Y-12908524D01*
X16066654Y-12908524D01*
X16095226Y-12922810D01*
X16109511Y-12951381D01*
X16109511Y-13108524D01*
X16695226Y-12794239D02*
X16438083Y-13179953D01*
X17080940Y-12808524D02*
X17109511Y-12808524D01*
X17138083Y-12822810D01*
X17152368Y-12837096D01*
X17166654Y-12865667D01*
X17180940Y-12922810D01*
X17180940Y-12994239D01*
X17166654Y-13051381D01*
X17152368Y-13079953D01*
X17138083Y-13094239D01*
X17109511Y-13108524D01*
X17080940Y-13108524D01*
X17052368Y-13094239D01*
X17038083Y-13079953D01*
X17023797Y-13051381D01*
X17009511Y-12994239D01*
X17009511Y-12922810D01*
X17023797Y-12865667D01*
X17038083Y-12837096D01*
X17052368Y-12822810D01*
X17080940Y-12808524D01*
X17309511Y-13079953D02*
X17323797Y-13094239D01*
X17309511Y-13108524D01*
X17295226Y-13094239D01*
X17309511Y-13079953D01*
X17309511Y-13108524D01*
X17509511Y-12808524D02*
X17538083Y-12808524D01*
X17566654Y-12822810D01*
X17580940Y-12837096D01*
X17595226Y-12865667D01*
X17609511Y-12922810D01*
X17609511Y-12994239D01*
X17595226Y-13051381D01*
X17580940Y-13079953D01*
X17566654Y-13094239D01*
X17538083Y-13108524D01*
X17509511Y-13108524D01*
X17480940Y-13094239D01*
X17466654Y-13079953D01*
X17452368Y-13051381D01*
X17438083Y-12994239D01*
X17438083Y-12922810D01*
X17452368Y-12865667D01*
X17466654Y-12837096D01*
X17480940Y-12822810D01*
X17509511Y-12808524D01*
X17880940Y-12808524D02*
X17738083Y-12808524D01*
X17723797Y-12951381D01*
X17738083Y-12937096D01*
X17766654Y-12922810D01*
X17838083Y-12922810D01*
X17866654Y-12937096D01*
X17880940Y-12951381D01*
X17895226Y-12979953D01*
X17895226Y-13051381D01*
X17880940Y-13079953D01*
X17866654Y-13094239D01*
X17838083Y-13108524D01*
X17766654Y-13108524D01*
X17738083Y-13094239D01*
X17723797Y-13079953D01*
X18038083Y-13108524D02*
X18095226Y-13108524D01*
X18123797Y-13094239D01*
X18138083Y-13079953D01*
X18166654Y-13037096D01*
X18180940Y-12979953D01*
X18180940Y-12865667D01*
X18166654Y-12837096D01*
X18152368Y-12822810D01*
X18123797Y-12808524D01*
X18066654Y-12808524D01*
X18038083Y-12822810D01*
X18023797Y-12837096D01*
X18009511Y-12865667D01*
X18009511Y-12937096D01*
X18023797Y-12965667D01*
X18038083Y-12979953D01*
X18066654Y-12994239D01*
X18123797Y-12994239D01*
X18152368Y-12979953D01*
X18166654Y-12965667D01*
X18180940Y-12937096D01*
X18295226Y-12808524D02*
X18295226Y-12865667D01*
X18409511Y-12808524D02*
X18409511Y-12865667D01*
X18852368Y-13222810D02*
X18838083Y-13208524D01*
X18809511Y-13165667D01*
X18795226Y-13137096D01*
X18780940Y-13094239D01*
X18766654Y-13022810D01*
X18766654Y-12965667D01*
X18780940Y-12894239D01*
X18795226Y-12851381D01*
X18809511Y-12822810D01*
X18838083Y-12779953D01*
X18852368Y-12765667D01*
X18952368Y-12837096D02*
X18966654Y-12822810D01*
X18995226Y-12808524D01*
X19066654Y-12808524D01*
X19095226Y-12822810D01*
X19109511Y-12837096D01*
X19123797Y-12865667D01*
X19123797Y-12894239D01*
X19109511Y-12937096D01*
X18938083Y-13108524D01*
X19123797Y-13108524D01*
X19480940Y-13108524D02*
X19480940Y-12808524D01*
X19609511Y-13108524D02*
X19609511Y-12951381D01*
X19595226Y-12922810D01*
X19566654Y-12908524D01*
X19523797Y-12908524D01*
X19495226Y-12922810D01*
X19480940Y-12937096D01*
X19795226Y-13108524D02*
X19766654Y-13094239D01*
X19752368Y-13079953D01*
X19738083Y-13051381D01*
X19738083Y-12965667D01*
X19752368Y-12937096D01*
X19766654Y-12922810D01*
X19795226Y-12908524D01*
X19838083Y-12908524D01*
X19866654Y-12922810D01*
X19880940Y-12937096D01*
X19895226Y-12965667D01*
X19895226Y-13051381D01*
X19880940Y-13079953D01*
X19866654Y-13094239D01*
X19838083Y-13108524D01*
X19795226Y-13108524D01*
X20066654Y-13108524D02*
X20038083Y-13094239D01*
X20023797Y-13065667D01*
X20023797Y-12808524D01*
X20295226Y-13094239D02*
X20266654Y-13108524D01*
X20209511Y-13108524D01*
X20180940Y-13094239D01*
X20166654Y-13065667D01*
X20166654Y-12951381D01*
X20180940Y-12922810D01*
X20209511Y-12908524D01*
X20266654Y-12908524D01*
X20295226Y-12922810D01*
X20309511Y-12951381D01*
X20309511Y-12979953D01*
X20166654Y-13008524D01*
X20423797Y-13094239D02*
X20452369Y-13108524D01*
X20509511Y-13108524D01*
X20538083Y-13094239D01*
X20552369Y-13065667D01*
X20552369Y-13051381D01*
X20538083Y-13022810D01*
X20509511Y-13008524D01*
X20466654Y-13008524D01*
X20438083Y-12994239D01*
X20423797Y-12965667D01*
X20423797Y-12951381D01*
X20438083Y-12922810D01*
X20466654Y-12908524D01*
X20509511Y-12908524D01*
X20538083Y-12922810D01*
X20652368Y-13222810D02*
X20666654Y-13208524D01*
X20695226Y-13165667D01*
X20709511Y-13137096D01*
X20723797Y-13094239D01*
X20738083Y-13022810D01*
X20738083Y-12965667D01*
X20723797Y-12894239D01*
X20709511Y-12851381D01*
X20695226Y-12822810D01*
X20666654Y-12779953D01*
X20652368Y-12765667D01*
X21195226Y-13222810D02*
X21180940Y-13208524D01*
X21152368Y-13165667D01*
X21138083Y-13137096D01*
X21123797Y-13094239D01*
X21109511Y-13022810D01*
X21109511Y-12965667D01*
X21123797Y-12894239D01*
X21138083Y-12851381D01*
X21152368Y-12822810D01*
X21180940Y-12779953D01*
X21195226Y-12765667D01*
X21309511Y-12908524D02*
X21309511Y-13108524D01*
X21309511Y-12937096D02*
X21323797Y-12922810D01*
X21352368Y-12908524D01*
X21395226Y-12908524D01*
X21423797Y-12922810D01*
X21438083Y-12951381D01*
X21438083Y-13108524D01*
X21623797Y-13108524D02*
X21595226Y-13094239D01*
X21580940Y-13079953D01*
X21566654Y-13051381D01*
X21566654Y-12965667D01*
X21580940Y-12937096D01*
X21595226Y-12922810D01*
X21623797Y-12908524D01*
X21666654Y-12908524D01*
X21695226Y-12922810D01*
X21709511Y-12937096D01*
X21723797Y-12965667D01*
X21723797Y-13051381D01*
X21709511Y-13079953D01*
X21695226Y-13094239D01*
X21666654Y-13108524D01*
X21623797Y-13108524D01*
X21809511Y-12908524D02*
X21923797Y-12908524D01*
X21852369Y-12808524D02*
X21852369Y-13065667D01*
X21866654Y-13094239D01*
X21895226Y-13108524D01*
X21923797Y-13108524D01*
X22252369Y-12908524D02*
X22252369Y-13208524D01*
X22252369Y-12922810D02*
X22280940Y-12908524D01*
X22338083Y-12908524D01*
X22366654Y-12922810D01*
X22380940Y-12937096D01*
X22395226Y-12965667D01*
X22395226Y-13051381D01*
X22380940Y-13079953D01*
X22366654Y-13094239D01*
X22338083Y-13108524D01*
X22280940Y-13108524D01*
X22252369Y-13094239D01*
X22566654Y-13108524D02*
X22538083Y-13094239D01*
X22523797Y-13065667D01*
X22523797Y-12808524D01*
X22809511Y-13108524D02*
X22809511Y-12951381D01*
X22795226Y-12922810D01*
X22766654Y-12908524D01*
X22709511Y-12908524D01*
X22680940Y-12922810D01*
X22809511Y-13094239D02*
X22780940Y-13108524D01*
X22709511Y-13108524D01*
X22680940Y-13094239D01*
X22666654Y-13065667D01*
X22666654Y-13037096D01*
X22680940Y-13008524D01*
X22709511Y-12994239D01*
X22780940Y-12994239D01*
X22809511Y-12979953D01*
X22909511Y-12908524D02*
X23023797Y-12908524D01*
X22952369Y-12808524D02*
X22952369Y-13065667D01*
X22966654Y-13094239D01*
X22995226Y-13108524D01*
X23023797Y-13108524D01*
X23238083Y-13094239D02*
X23209511Y-13108524D01*
X23152369Y-13108524D01*
X23123797Y-13094239D01*
X23109511Y-13065667D01*
X23109511Y-12951381D01*
X23123797Y-12922810D01*
X23152369Y-12908524D01*
X23209511Y-12908524D01*
X23238083Y-12922810D01*
X23252369Y-12951381D01*
X23252369Y-12979953D01*
X23109511Y-13008524D01*
X23509511Y-13108524D02*
X23509511Y-12808524D01*
X23509511Y-13094239D02*
X23480940Y-13108524D01*
X23423797Y-13108524D01*
X23395226Y-13094239D01*
X23380940Y-13079953D01*
X23366654Y-13051381D01*
X23366654Y-12965667D01*
X23380940Y-12937096D01*
X23395226Y-12922810D01*
X23423797Y-12908524D01*
X23480940Y-12908524D01*
X23509511Y-12922810D01*
X23623797Y-13222810D02*
X23638083Y-13208524D01*
X23666654Y-13165667D01*
X23680940Y-13137096D01*
X23695226Y-13094239D01*
X23709511Y-13022810D01*
X23709511Y-12965667D01*
X23695226Y-12894239D01*
X23680940Y-12851381D01*
X23666654Y-12822810D01*
X23638083Y-12779953D01*
X23623797Y-12765667D01*
M02*
