G04 #@! TF.FileFunction,Other,Fab,Bot*
%FSLAX46Y46*%
G04 Gerber Fmt 4.6, Leading zero omitted, Abs format (unit mm)*
G04 Created by KiCad (PCBNEW 4.0.7) date 07/17/18 16:46:28*
%MOMM*%
%LPD*%
G01*
G04 APERTURE LIST*
%ADD10C,0.100000*%
%ADD11C,0.150000*%
%ADD12C,0.075000*%
G04 APERTURE END LIST*
D10*
X152742800Y-100412600D02*
X151142800Y-100412600D01*
X151142800Y-100412600D02*
X151142800Y-101212600D01*
X151142800Y-101212600D02*
X152742800Y-101212600D01*
X152742800Y-101212600D02*
X152742800Y-100412600D01*
X143856100Y-108613600D02*
X144256100Y-108613600D01*
X144056100Y-108663600D02*
X143856100Y-108963600D01*
X144256100Y-108963600D02*
X144056100Y-108663600D01*
X143856100Y-108963600D02*
X144256100Y-108963600D01*
X144456100Y-109613600D02*
X144456100Y-108013600D01*
X143656100Y-109613600D02*
X144456100Y-109613600D01*
X143656100Y-108013600D02*
X143656100Y-109613600D01*
X144456100Y-108013600D02*
X143656100Y-108013600D01*
X161913500Y-92595000D02*
X158913500Y-92595000D01*
X158913500Y-92595000D02*
X158913500Y-98595000D01*
X158913500Y-98595000D02*
X164913500Y-98595000D01*
X164913500Y-98595000D02*
X164913500Y-92595000D01*
X164913500Y-92595000D02*
X161913500Y-92595000D01*
X163929064Y-95595000D02*
G75*
G03X163929064Y-95595000I-2015564J0D01*
G01*
D11*
X153516600Y-103346700D02*
X149216600Y-103346700D01*
X149216600Y-103346700D02*
X149216600Y-110546700D01*
X149216600Y-110546700D02*
X154516600Y-110546700D01*
X154516600Y-110546700D02*
X154516600Y-104346700D01*
X154516600Y-104346700D02*
X153516600Y-103346700D01*
D10*
X148226100Y-116283400D02*
X148226100Y-113383400D01*
X148226100Y-113383400D02*
X155126100Y-113383400D01*
X155126100Y-113383400D02*
X155126100Y-116283400D01*
X155126100Y-116283400D02*
X148226100Y-116283400D01*
X148226100Y-114383400D02*
X149226100Y-113383400D01*
D12*
X151992800Y-100919743D02*
X152007086Y-100934029D01*
X152049943Y-100948314D01*
X152078514Y-100948314D01*
X152121371Y-100934029D01*
X152149943Y-100905457D01*
X152164228Y-100876886D01*
X152178514Y-100819743D01*
X152178514Y-100776886D01*
X152164228Y-100719743D01*
X152149943Y-100691171D01*
X152121371Y-100662600D01*
X152078514Y-100648314D01*
X152049943Y-100648314D01*
X152007086Y-100662600D01*
X151992800Y-100676886D01*
X151707086Y-100948314D02*
X151878514Y-100948314D01*
X151792800Y-100948314D02*
X151792800Y-100648314D01*
X151821371Y-100691171D01*
X151849943Y-100719743D01*
X151878514Y-100734029D01*
D11*
X163246833Y-95999762D02*
X163103976Y-96047381D01*
X162865880Y-96047381D01*
X162770642Y-95999762D01*
X162723023Y-95952143D01*
X162675404Y-95856905D01*
X162675404Y-95761667D01*
X162723023Y-95666429D01*
X162770642Y-95618810D01*
X162865880Y-95571190D01*
X163056357Y-95523571D01*
X163151595Y-95475952D01*
X163199214Y-95428333D01*
X163246833Y-95333095D01*
X163246833Y-95237857D01*
X163199214Y-95142619D01*
X163151595Y-95095000D01*
X163056357Y-95047381D01*
X162818261Y-95047381D01*
X162675404Y-95095000D01*
X162342071Y-95047381D02*
X162103976Y-96047381D01*
X161913499Y-95333095D01*
X161723023Y-96047381D01*
X161484928Y-95047381D01*
X160580166Y-96047381D02*
X161151595Y-96047381D01*
X160865881Y-96047381D02*
X160865881Y-95047381D01*
X160961119Y-95190238D01*
X161056357Y-95285476D01*
X161151595Y-95333095D01*
X152476124Y-106508605D02*
X152476124Y-107156224D01*
X152438029Y-107232414D01*
X152399933Y-107270510D01*
X152323743Y-107308605D01*
X152171362Y-107308605D01*
X152095171Y-107270510D01*
X152057076Y-107232414D01*
X152018981Y-107156224D01*
X152018981Y-106508605D01*
X151218981Y-107308605D02*
X151676124Y-107308605D01*
X151447553Y-107308605D02*
X151447553Y-106508605D01*
X151523743Y-106622890D01*
X151599934Y-106699081D01*
X151676124Y-106737176D01*
X152152291Y-114809590D02*
X152152291Y-115285781D01*
X152485624Y-114285781D02*
X152152291Y-114809590D01*
X151818957Y-114285781D01*
X150961814Y-115285781D02*
X151533243Y-115285781D01*
X151247529Y-115285781D02*
X151247529Y-114285781D01*
X151342767Y-114428638D01*
X151438005Y-114523876D01*
X151533243Y-114571495D01*
M02*
